<?xml version="1.0" encoding="UTF-8"?>
<svg id="Layer_2" data-name="Layer 2" xmlns="http://www.w3.org/2000/svg" viewBox="0 0 671.99 144.15">
  <defs>
    <style>
      .cls-1 {
        fill: #965d35;
      }
    </style>
  </defs>
  <g id="Layer_1-2" data-name="Layer 1">
    <g>
      <g>
        <path d="m0,81.31v-5.7h39.3v5.7c-7.8,2.25-6.9,5.4-4.8,12.9l7.95,26.4c1.95,6.3,5.1,6.3,6.9,0l4.05-14.7c.45-2.7,2.55-10.2,1.35-15.15-1.35-5.25-5.25-8.25-8.55-9.45v-5.7h39.3v5.7c-7.8,2.25-6.9,5.4-4.8,12.9l7.95,26.4c1.95,6.3,5.1,6.3,6.9,0l3.45-12.75c5.7-20.55,4.05-24.3-5.4-26.55v-5.7h31.2v5.7c-9.3,2.25-12.3,5.7-14.4,12.9l-16.35,49.05h-19.2l-13.35-40.5-13.65,40.5h-19.2l-16.35-49.05c-2.1-7.05-5.85-10.65-12.3-12.9Z"/>
        <path d="m124.8,127.66c0-12.6,11.1-18.75,37.05-23.25,5.7-.9,6.75-2.1,6.75-6.6v-1.8c0-10.8-2.25-15.3-8.7-15.3-15.9,0-2.7,20.85-20.1,20.85-7.2,0-10.65-4.65-10.65-9.75,0-11.7,17.1-17.55,35.4-17.55s26.55,5.25,26.55,29.25v24.45c0,4.95.75,8.7,5.7,7.05v3.45c-2.4,4.8-7.35,5.7-12.6,5.7-10.65,0-14.1-6.15-15-9.9-.3-2.1-1.5-2.7-3-.75-3.3,4.05-9.75,10.65-21.6,10.65-10.35,0-19.8-4.8-19.8-16.5Zm30.75,4.05c8.1,0,13.05-6.6,13.05-15.3v-1.65c0-3.45-1.35-4.5-6-4.2-12.3.75-15.15,7.95-15.15,12.75s2.4,8.4,8.1,8.4Z"/>
        <path d="m261.9,127.66v-24.3c0-8.85-4.5-16.35-12.45-16.35s-12.45,7.5-12.45,16.35v23.25c0,8.1,2.55,10.35,9.3,10.8v5.85h-41.4v-5.85c7.05-.45,9.6-2.7,9.6-10.8v-34.35c0-7.05-3.9-8.25-9.45-7.8v-5.85l24.45-4.05c5.1-.75,7.5,1.5,7.5,4.8,0,4.95,3.15,6,5.1,3.6,3.9-4.95,9.3-9.3,20.25-9.3s22.05,4.35,22.05,26.25v28.05c0,4.95,1.95,8.1,6.3,6.45v3.3c-2.1,5.1-7.5,6.45-12.3,6.45-9.6,0-16.5-5.4-16.5-16.5Z"/>
        <path d="m298.2,110.41c0-23.85,16.35-36.15,32.25-36.15s20.85,12.9,20.85-2.25v-9c0-7.05-3.9-8.25-9.45-7.8v-5.85l24.45-4.05c5.1-.75,7.5,1.5,7.5,6v76.65c0,4.95,1.95,8.25,6.3,6.45v3.3c-2.1,5.1-7.5,6.45-12.15,6.45-5.1,0-11.55-1.65-13.35-6.15-1.2-2.85-2.55-4.35-4.8-4.35-3,0-9,10.5-22.95,10.5s-28.65-11.55-28.65-33.75Zm40.35,21.6c5.85,0,12.75-4.2,12.75-16.8v-7.05c0-19.5-9.15-27.15-16.65-27.15s-12.3,9.45-12.3,21.6c0,14.85,6.6,29.4,16.2,29.4Z"/>
        <path d="m389.1,109.81c0-24.6,20.1-35.55,38.7-35.55,15.9,0,28.8,7.95,28.8,21.15s-13.05,14.25-26.25,15.3l-11.7.9c-2.55.15-3.9,1.35-3.9,4.8,0,11.1,12,16.05,21.9,16.05,5.25,0,12.45-1.5,17.85-7.65l4.5,4.05c-2.85,5.85-15,15.3-32.55,15.3-18.75,0-37.35-10.8-37.35-34.35Zm29.55-4.05l5.4-.6c10.35-1.05,12.45-3.75,12.45-9.6,0-7.2-3-14.4-10.8-14.4-9.75,0-12,10.95-12,18.15,0,4.35,1.05,6.6,4.95,6.45Z"/>
        <path d="m475.95,126.61v-34.35c0-7.05-3.9-8.25-9.45-7.8v-5.85l24.45-4.05c5.1-.75,7.5,1.5,7.5,4.8v2.25c0,3.6,2.7,3.75,4.8,1.05,4.2-4.95,9.3-9,17.1-9,9.3,0,17.1,6,17.1,15.15,0,7.05-4.95,12.75-13.35,12.75-15,0-4.8-16.5-13.8-16.5-6.3,0-11.85,7.8-11.85,27.45v14.1c0,8.1,2.55,10.35,10.35,10.8v5.85h-42.45v-5.85c7.05-.45,9.6-2.7,9.6-10.8Z"/>
        <path class="cls-1" d="m549.3,127.21l4.35-31.2c1.2-9-3-12.75-9.45-10.05l.6-5.55c6.6-4.95,12.3-5.85,15.9-5.85,9.3,0,15.6,6.3,13.95,16.95l-4.65,34.05c-.9,6.3,3.45,9.6,8.4,7.2l-.9,5.55c-5.25,4.95-12.45,5.85-15.3,5.85-7.95,0-14.55-6-12.9-16.95Zm16.95-84.3c6.9,0,12.75,5.55,12.75,12.75s-5.85,12.75-12.75,12.75-13.05-5.55-13.05-12.75,6-12.75,13.05-12.75Z"/>
        <path d="m643.19,127.66v-24.3c0-8.85-4.5-16.35-12.45-16.35s-12.45,7.5-12.45,16.35v23.25c0,8.1,2.55,10.35,9.3,10.8v5.85h-41.4v-5.85c7.05-.45,9.6-2.7,9.6-10.8v-34.35c0-7.05-3.9-8.25-9.45-7.8v-5.85l24.45-4.05c5.1-.75,7.5,1.5,7.5,4.8,0,4.95,3.15,6,5.1,3.6,3.9-4.95,9.3-9.3,20.25-9.3s22.05,4.35,22.05,26.25v28.05c0,4.95,1.95,8.1,6.3,6.45v3.3c-2.1,5.1-7.5,6.45-12.3,6.45-9.6,0-16.5-5.4-16.5-16.5Z"/>
      </g>
      <g>
        <path d="m229.92,39.28c0-12.24,8.96-22.56,19.28-22.56,6.32,0,8.32,4,8.96-1.12l.56-4.48c.64-5.2-.96-6.4-4.72-6.4l.4-2.16c5.36,0,9.44-.64,13.28-1.6l-5.68,45.12c-.4,3.28,1.92,4.56,4.56,3.12l-.32,2.16c-2.24,2.08-4.96,2.64-6.72,2.64-3.04,0-4.56-1.76-5.2-3.76-.4-1.2-.88-1.36-2.08-.16-2.88,2.8-6.24,3.92-9.6,3.92-6.88,0-12.72-4.72-12.72-14.72Zm16.56,10.24c3.92,0,8-2.88,9.2-13.44l.64-5.52c.88-8-1.6-11.2-6.16-11.2-7.6,0-11.68,9.28-11.68,18,0,7.68,3.2,12.16,8,12.16Z"/>
        <path d="m275.12,47.2l3.12-22c.56-3.68-1.84-4.88-4.64-3.6l.32-2.08c2.32-2.08,4.88-2.64,6.64-2.64,3.44,0,6.16,2.24,5.52,6.8l-3.12,22.4c-.48,3.28,1.92,4.56,4.56,3.2l-.4,2.08c-2.16,2.08-4.88,2.64-6.56,2.64-3.28,0-6.08-2.24-5.44-6.8ZM283.44,0c2.72,0,4.96,2.16,4.96,4.96s-2.24,5.04-4.96,5.04-5.04-2.16-5.04-5.04,2.24-4.96,5.04-4.96Z"/>
        <path d="m294.4,38.08c0-9.68,6.72-21.52,19.6-21.52,7.6,0,11.52,4.08,11.52,9.44,0,5.76-4.56,9.68-15.84,11.6l-3.84.72c-2.16.32-2.8,2.16-1.6,4.64,1.6,3.68,4.72,6.32,9.36,6.32,2.96,0,6.32-1.04,8.64-3.6l1.36,1.76c-2.16,2.64-6.8,6.56-13.68,6.56-8.64,0-15.52-6.16-15.52-15.92Zm11.44-2l2-.32c9.44-1.44,10.32-6.4,10.32-9.68,0-4.8-2-7.04-5.68-7.04-6.16,0-10.08,6.4-10.08,14.24,0,2.32,1.36,3.12,3.44,2.8Z"/>
      </g>
    </g>
  </g>
</svg>